<svg width="403" height="97" viewBox="0 0 403 97" fill="none" xmlns="http://www.w3.org/2000/svg">
<path d="M3.912 43.208L3.272 19.016C3.272 15.176 2.84533 12.1467 1.992 9.92799C1.13867 7.70933 0.712 6.51466 0.712 6.34399C0.712 4.46666 3.57067 3.01599 9.288 1.992C15.0907 0.967995 19.4853 0.455994 22.472 0.455994C25.544 0.455994 27.208 1.18133 27.464 2.632C32.84 26.6107 37.3627 43.2507 41.032 52.552C41.4587 53.576 41.8853 54.088 42.312 54.088C42.824 54.088 43.2507 53.704 43.592 52.936C49.3093 36.808 54.344 20.8507 58.696 5.064C59.0373 4.03999 59.8907 3.27199 61.256 2.75999C62.6213 2.16266 64.968 1.608 68.296 1.09599C71.7093 0.583995 75.08 0.327995 78.408 0.327995C81.736 0.327995 83.4 1.01066 83.4 2.376C83.4 2.46133 83.272 3.144 83.016 4.424C82.76 5.61866 82.504 7.112 82.248 8.904C81.992 10.696 81.6933 12.872 81.352 15.432C80.584 21.32 80.072 28.104 79.816 35.784C79.6453 43.3787 79.56 51.016 79.56 58.696L79.816 72.136C79.816 78.28 80.2 82.6747 80.968 85.32C81.8213 87.88 82.248 89.3733 82.248 89.8C82.248 90.1413 81.9493 90.568 81.352 91.08C78.7067 93.2133 74.696 94.28 69.32 94.28C65.9067 94.28 63.9867 93.128 63.56 90.824C63.304 89.6293 63.176 87.752 63.176 85.192C63.176 82.5467 63.432 74.5253 63.944 61.128C64.456 47.7307 64.712 38.0027 64.712 31.944C64.712 25.8 64.3707 22.728 63.688 22.728C63.6027 22.728 63.56 22.7707 63.56 22.856C63.56 22.856 63.432 22.8987 63.176 22.984C62.92 23.0693 62.2373 24.392 61.128 26.952C60.104 29.512 58.0133 35.8267 54.856 45.896C51.6987 55.9653 48.84 65.3947 46.28 74.184C43.72 82.888 42.312 87.5813 42.056 88.264C41.1173 90.568 39.3253 91.72 36.68 91.72C35.4 91.72 34.376 91.2507 33.608 90.312C30.8773 77.6827 26.0133 59.6347 19.016 36.168L15.432 24.52C15.2613 24.0933 15.0907 23.88 14.92 23.88C14.4933 23.88 14.1947 24.1787 14.024 24.776C13.6827 30.3227 13.512 41.2453 13.512 57.544C13.512 73.7573 14.1093 83.9973 15.304 88.264C15.3893 88.4347 15.432 88.6907 15.432 89.032C15.432 90.824 14.024 92.1467 11.208 93C8.392 93.768 5.832 94.152 3.528 94.152C1.30933 94.152 0.2 93.64 0.2 92.616C0.2 92.5307 0.413333 91.848 0.84 90.568C2.12 86.216 2.93067 79.9013 3.272 71.624C3.69867 63.3467 3.912 53.8747 3.912 43.208ZM132.592 54.6L132.336 70.984C132.336 82.3333 133.573 89.16 136.048 91.464C136.389 91.8053 136.56 92.1893 136.56 92.616C136.56 93.896 133.787 94.536 128.24 94.536C122.779 94.536 119.877 92.9147 119.536 89.672C119.451 88.904 119.408 87.3253 119.408 84.936L119.92 64.456C119.92 63.8587 119.579 63.56 118.896 63.56C114.8 63.56 110.96 64.712 107.376 67.016C103.792 69.32 102 72.264 102 75.848C102 77.7253 102.512 79.304 103.536 80.584C104.56 81.864 105.797 82.504 107.248 82.504C108.784 82.504 110.021 82.2053 110.96 81.608C111.984 81.0107 112.581 80.6693 112.752 80.584C114.203 80.7547 114.928 82.2907 114.928 85.192C114.928 88.008 113.605 90.312 110.96 92.104C108.315 93.8107 105.541 94.664 102.64 94.664C99.7387 94.664 97.2213 94.152 95.088 93.128C93.04 92.104 91.5467 90.952 90.608 89.672C89.6693 88.392 88.9013 86.9413 88.304 85.32C87.7067 83.3573 87.408 81.6507 87.408 80.2C87.408 74.2267 89.2853 69.448 93.04 65.864C96.7947 62.28 101.616 59.72 107.504 58.184C115.269 56.648 119.323 55.24 119.664 53.96C119.92 53.0213 120.048 51.4427 120.048 49.224C120.048 44.7013 117.744 42.44 113.136 42.44C111.173 42.44 109.424 43.08 107.888 44.36C106.352 45.5547 105.584 47.0907 105.584 48.968L106.352 52.04C106.181 53.4907 104.645 54.344 101.744 54.6L100.336 54.728C97.776 54.728 95.728 54.088 94.192 52.808C92.7413 51.528 92.016 49.8213 92.016 47.688C92.016 46.3227 92.4427 44.8293 93.296 43.208C94.2347 41.5013 95.3867 40.136 96.752 39.112C98.1173 38.088 100.208 37.192 103.024 36.424C105.925 35.5707 108.699 35.144 111.344 35.144C113.989 35.144 116.037 35.2293 117.488 35.4C118.939 35.5707 120.901 35.9973 123.376 36.68C125.936 37.2773 128.027 38.472 129.648 40.264C131.355 42.056 132.251 43.976 132.336 46.024C132.507 47.9867 132.592 50.8453 132.592 54.6ZM169.14 37.704C172.809 35.912 176.436 35.016 180.02 35.016C183.604 35.016 185.396 38.728 185.396 46.152C185.396 51.6133 184.372 57.16 182.324 62.792C180.361 68.424 177.887 73.3733 174.9 77.64C168.756 86.6 163.209 92.5733 158.26 95.56C157.065 96.2427 156.169 96.584 155.572 96.584C154.975 96.584 154.335 95.944 153.652 94.664C153.055 93.384 152.073 90.568 150.708 86.216C149.428 81.864 148.361 77.9813 147.508 74.568L146.356 69.32C144.649 61.8107 142.985 55.8373 141.364 51.4C139.743 46.8773 138.548 44.2747 137.78 43.592L136.5 42.44C135.647 42.0133 135.22 41.5013 135.22 40.904L135.86 39.752C136.969 38.728 138.804 37.704 141.364 36.68C144.009 35.5707 146.911 35.016 150.068 35.016C151.519 35.016 152.415 35.8267 152.756 37.448C154.036 41.3733 155.145 45.9813 156.084 51.272C157.023 56.5627 158.26 62.536 159.796 69.192C161.417 75.848 162.74 79.2187 163.764 79.304C164.276 79.304 164.831 78.92 165.428 78.152C166.111 77.384 166.879 76.36 167.732 75.08C168.671 73.8 169.78 71.3253 171.06 67.656C172.425 63.9867 173.108 60.872 173.108 58.312C173.108 55.6667 172.98 53.6613 172.724 52.296C172.553 50.8453 171.828 49.1813 170.548 47.304C169.268 45.4267 167.817 44.36 166.196 44.104C164.575 43.7627 163.764 43.208 163.764 42.44C163.764 41.0747 165.556 39.496 169.14 37.704ZM202 60.488L202.128 63.688C202.128 64.2 202.469 64.456 203.152 64.456C205.883 64.2 208.272 63.5173 210.32 62.408C212.368 61.2133 213.904 59.8907 214.928 58.44C216.976 55.2827 218.085 52.552 218.256 50.248L218.384 48.712C218.384 44.104 216.549 41.8 212.88 41.8C210.149 41.8 207.931 42.9947 206.224 45.384C203.408 49.1387 202 54.1733 202 60.488ZM229.904 77.512C229.904 80.7547 229.221 83.6133 227.856 86.088C226.576 88.4773 225.083 90.2693 223.376 91.464C221.755 92.5733 219.835 93.4693 217.616 94.152C214.8 95.0053 212.112 95.432 209.552 95.432C202.384 95.432 197.093 92.744 193.68 87.368C190.267 81.992 188.56 75.1653 188.56 66.888C188.56 58.5253 190.651 51.1013 194.832 44.616C199.099 38.1307 205.456 34.888 213.904 34.888C221.584 34.888 226.789 37.576 229.52 42.952C230.629 45 231.184 46.9627 231.184 48.84C231.184 50.632 231.099 52.0827 230.928 53.192C230.757 54.216 230.16 55.7947 229.136 57.928C228.112 60.0613 226.747 61.9813 225.04 63.688C223.333 65.3947 220.645 67.016 216.976 68.552C213.307 70.088 208.997 71.112 204.048 71.624C203.365 71.624 203.024 71.9227 203.024 72.52C203.024 73.288 203.28 74.44 203.792 75.976C204.389 77.4267 205.029 78.664 205.712 79.688C207.589 82.0773 210.363 83.272 214.032 83.272C217.701 83.272 220.816 82.0773 223.376 79.688C224.741 78.408 225.851 76.8293 226.704 74.952C227.045 74.2693 227.472 73.928 227.984 73.928C228.581 73.928 229.051 74.3973 229.392 75.336C229.733 76.2747 229.904 77 229.904 77.512ZM274.755 58.696L275.267 63.176C275.267 64.7973 273.731 65.608 270.659 65.608C264.43 65.608 261.315 63.2613 261.315 58.568C261.315 57.4587 261.614 55.9227 262.211 53.96C262.808 51.9973 263.107 50.2907 263.107 48.84C263.107 47.3893 262.68 46.152 261.827 45.128C260.974 44.0187 259.736 43.464 258.115 43.464C256.494 43.464 255.086 44.0613 253.891 45.256C252.782 46.3653 252.099 47.5173 251.843 48.712L251.331 50.504C250.819 53.1493 250.563 57.5867 250.563 63.816C250.563 69.96 250.648 74.824 250.819 78.408C250.99 81.9067 251.16 84.3387 251.331 85.704C251.502 86.984 251.587 87.752 251.587 88.008C251.587 90.1413 250.264 91.848 247.619 93.128C244.974 94.4933 242.328 95.176 239.683 95.176C237.038 95.176 235.715 94.6213 235.715 93.512L236.355 89.544C237.55 82.12 238.147 72.4347 238.147 60.488C238.147 48.5413 237.72 40.4347 236.867 36.168C236.867 35.144 237.763 34.632 239.555 34.632C244.163 34.632 247.235 36.2107 248.771 39.368C248.856 39.7093 248.984 39.88 249.155 39.88C249.411 39.88 250.008 39.496 250.947 38.728C253.763 36.424 257.091 35.272 260.931 35.272C263.32 35.272 265.71 35.7413 268.099 36.68C272.963 38.6427 275.395 42.7387 275.395 48.968L274.755 58.696ZM294.399 24.52L291.327 24.392C289.023 24.392 287.53 24.9467 286.847 26.056C286.676 26.312 286.463 26.44 286.207 26.44C285.098 26.44 284.543 24.5627 284.543 20.808C284.543 16.968 285.098 14.536 286.207 13.512C287.402 12.488 289.407 11.976 292.223 11.976C295.124 11.976 297.087 12.488 298.111 13.512C299.135 14.4507 299.647 16.072 299.647 18.376C299.647 20.68 299.263 22.3013 298.495 23.24C297.727 24.0933 296.362 24.52 294.399 24.52ZM284.159 89.16L285.567 59.336C285.567 52.2533 284.756 47.432 283.135 44.872C282.623 44.0187 282.026 43.3787 281.343 42.952C280.831 42.7813 280.575 42.44 280.575 41.928C280.575 40.392 282.751 38.8987 287.103 37.448C291.455 35.9973 294.612 35.272 296.575 35.272C298.623 35.272 299.69 35.784 299.775 36.808C299.775 38.5147 299.519 43.3787 299.007 51.4C298.58 59.336 298.367 67.6987 298.367 76.488C298.367 85.2773 298.879 90.7387 299.903 92.872C300.159 93.2987 300.287 93.7253 300.287 94.152C300.287 95.2613 298.666 95.816 295.423 95.816C292.18 95.816 288.852 94.9627 285.439 93.256C284.586 92.8293 284.159 91.464 284.159 89.16ZM349.946 78.28C349.946 83.144 347.983 87.1973 344.058 90.44C340.218 93.5973 335.61 95.176 330.234 95.176C322.383 95.176 316.623 92.8293 312.954 88.136C309.285 83.3573 307.45 76.9147 307.45 68.808C307.45 60.1893 309.37 52.552 313.21 45.896C315.087 42.4827 317.775 39.7947 321.274 37.832C324.773 35.8693 328.869 34.888 333.562 34.888C340.645 34.888 345.637 37.2773 348.538 42.056C349.733 44.0187 350.33 46.3227 350.33 48.968C350.33 53.064 348.623 56.136 345.21 58.184C343.845 58.952 342.565 59.336 341.37 59.336C340.261 59.336 339.322 59.2933 338.554 59.208C337.871 59.0373 336.933 58.44 335.738 57.416C334.543 56.392 333.946 54.984 333.946 53.192C334.031 52.2533 334.757 51.4853 336.122 50.888C337.402 50.12 338.042 48.7547 338.042 46.792C338.042 43.464 335.994 41.8 331.898 41.8C330.874 41.8 329.637 42.2693 328.186 43.208C326.821 44.0613 325.669 45.2133 324.73 46.664C323.791 48.0293 322.895 50.248 322.042 53.32C321.274 56.3067 320.89 59.208 320.89 62.024C320.89 64.7547 320.975 66.8453 321.146 68.296C321.402 69.6613 321.871 71.5813 322.554 74.056C323.322 76.4453 324.687 78.408 326.65 79.944C328.698 81.48 331.215 82.248 334.202 82.248C337.786 82.248 340.943 80.7547 343.674 77.768C344.783 76.5733 345.679 75.1227 346.362 73.416C346.703 72.7333 347.13 72.392 347.642 72.392C348.41 72.392 348.965 73.1173 349.306 74.568C349.733 75.9333 349.946 77.1707 349.946 78.28ZM382.113 51.528C381.772 51.8693 381.601 52.2533 381.601 52.68C381.601 53.0213 382.369 53.3627 383.905 53.704C385.526 54.0453 387.276 54.984 389.153 56.52C391.03 58.056 392.438 59.72 393.377 61.512C395.169 65.0107 396.15 68.0827 396.321 70.728L396.449 72.392C396.876 82.376 398.71 89.2027 401.953 92.872C402.38 93.4693 402.593 93.896 402.593 94.152C402.593 95.0907 401.398 95.56 399.009 95.56C391.841 95.56 387.276 94.0667 385.313 91.08C384.289 89.8853 383.777 86.1733 383.777 79.944V76.744C383.777 68.808 382.796 63.304 380.833 60.232C379.809 58.7813 378.529 58.056 376.993 58.056C375.542 58.056 374.006 59.3787 372.385 62.024C370.764 64.584 369.953 66.76 369.953 68.552C369.953 75.72 370.124 80.712 370.465 83.528C370.806 86.344 370.977 87.7947 370.977 87.88C370.977 90.3547 369.27 92.2747 365.857 93.64C362.529 95.0053 359.372 95.688 356.385 95.688C355.276 95.688 354.721 95.0053 354.721 93.64V93.128C356.769 82.632 357.793 66.0773 357.793 43.464C357.793 36.04 357.622 29.768 357.281 24.648L357.025 22.088C356.854 19.6987 356.342 17.6507 355.489 15.944C354.721 14.2373 353.953 13.128 353.185 12.616L352.161 11.976C351.564 11.6347 351.265 11.2507 351.265 10.824C351.265 9.45866 353.313 7.92266 357.409 6.216C361.505 4.50933 365.046 3.656 368.033 3.656C369.398 3.74133 370.124 4.25333 370.209 5.19199C370.636 8.60533 370.849 15.6453 370.849 26.312C370.849 36.8933 370.593 45.3413 370.081 51.656C370.081 52.68 370.252 53.192 370.593 53.192C370.934 53.192 371.446 52.7227 372.129 51.784C372.897 50.76 374.177 49.1813 375.969 47.048C377.846 44.9147 380.321 42.44 383.393 39.624C386.55 36.808 389.068 35.4 390.945 35.4C392.908 35.4 394.828 35.8693 396.705 36.808C398.582 37.7467 399.521 38.6427 399.521 39.496L398.113 40.392C393.249 42.184 387.916 45.896 382.113 51.528Z" fill="white"/>
</svg>
